<svg xmlns="http://www.w3.org/2000/svg" xmlns:xlink="http://www.w3.org/1999/xlink" width="500" zoomAndPan="magnify" viewBox="0 0 375 374.999991" height="500" preserveAspectRatio="xMidYMid meet" version="1.0"><defs><clipPath id="9c104dbf82"><path d="M 136 182 L 371.300781 182 L 371.300781 375 L 136 375 Z M 136 182 " clip-rule="nonzero"/></clipPath></defs><g clip-path="url(#9c104dbf82)"><path fill="#ec674d" d="M 289.460938 182.53125 C 289.460938 182.53125 321.457031 187.480469 329.453125 194.179688 C 354.101562 214.777344 364.949219 271.769531 371.199219 338.113281 C 375.851562 387.007812 234.414062 373.210938 234.414062 373.210938 L 234.214844 361.761719 L 136.777344 356.3125 C 136.777344 356.3125 156.023438 246.824219 162.171875 220.675781 C 168.921875 192.03125 212.117188 186.878906 212.117188 186.878906 L 289.460938 182.53125 " fill-opacity="1" fill-rule="evenodd"/></g><path fill="#f2e8d5" d="M 208.316406 186.03125 L 209.769531 348.960938 L 232.566406 347.960938 L 233.066406 329.164062 L 289.007812 322.714844 L 288.007812 183.082031 L 273.660156 178.132812 L 226.617188 179.082031 L 208.316406 186.03125 " fill-opacity="1" fill-rule="evenodd"/><path fill="#582d2a" d="M 181.871094 265.121094 C 181.871094 265.121094 181.820312 271.371094 181.769531 279.769531 C 181.71875 284.21875 181.671875 289.269531 181.671875 294.367188 C 181.71875 308.96875 181.871094 323.566406 181.871094 323.566406 C 181.871094 324.164062 182.371094 324.617188 182.921875 324.617188 C 183.519531 324.617188 183.96875 324.164062 183.96875 323.566406 C 183.96875 323.566406 184.171875 308.96875 184.171875 294.367188 C 184.171875 289.269531 184.171875 284.21875 184.121094 279.769531 C 184.070312 271.371094 184.019531 265.121094 184.019531 265.121094 C 184.019531 264.570312 183.519531 264.070312 182.921875 264.070312 C 182.371094 264.070312 181.871094 264.570312 181.871094 265.121094 " fill-opacity="1" fill-rule="evenodd"/><path fill="#582d2a" d="M 306.757812 291.070312 C 306.757812 291.070312 307.308594 294.019531 308.058594 297.96875 C 308.40625 300.117188 308.90625 302.519531 309.355469 304.917969 C 310.808594 311.816406 312.40625 318.664062 312.40625 318.664062 C 312.507812 319.214844 313.054688 319.566406 313.605469 319.464844 C 314.15625 319.367188 314.554688 318.816406 314.40625 318.214844 C 314.40625 318.214844 313.207031 311.316406 311.808594 304.417969 C 311.355469 302.019531 310.808594 299.617188 310.355469 297.519531 C 309.507812 293.570312 308.855469 290.617188 308.855469 290.617188 C 308.707031 290.070312 308.15625 289.71875 307.558594 289.820312 C 307.007812 289.917969 306.65625 290.519531 306.757812 291.070312 " fill-opacity="1" fill-rule="evenodd"/><path fill="#582d2a" d="M 194.621094 369.910156 L 223.367188 361.160156 L 178.269531 348.363281 L 194.621094 369.910156 " fill-opacity="1" fill-rule="evenodd"/><path fill="#f7907f" d="M 3.839844 243.824219 L 30.035156 365.410156 L 194.621094 369.910156 L 160.023438 242.222656 L 3.839844 243.824219 " fill-opacity="1" fill-rule="evenodd"/><path fill="#f2e8d5" d="M 92.480469 285.71875 C 102.628906 285.71875 110.929688 294.019531 110.929688 304.167969 C 110.929688 314.367188 102.628906 322.664062 92.480469 322.664062 C 82.230469 322.664062 73.980469 314.367188 73.980469 304.167969 C 73.980469 294.019531 82.230469 285.71875 92.480469 285.71875 " fill-opacity="1" fill-rule="evenodd"/><path fill="#fcbfa3" d="M 233.414062 338.5625 L 234.214844 361.761719 C 234.214844 361.761719 186.570312 367.160156 188.820312 348.363281 C 191.019531 329.566406 233.414062 338.5625 233.414062 338.5625 " fill-opacity="1" fill-rule="evenodd"/><path fill="#f7907f" d="M 194.371094 343.511719 C 195.96875 343.113281 197.570312 342.714844 199.167969 342.464844 C 200.769531 342.164062 202.367188 341.964844 204.019531 341.8125 C 207.167969 341.613281 210.316406 341.761719 213.617188 342.5625 C 214.015625 342.664062 214.417969 342.414062 214.515625 342.011719 C 214.667969 341.613281 214.417969 341.214844 213.96875 341.113281 C 210.566406 340.113281 207.21875 339.8125 203.867188 340.015625 C 202.167969 340.113281 200.519531 340.414062 198.820312 340.761719 C 197.167969 341.0625 195.570312 341.511719 193.96875 342.011719 C 193.519531 342.113281 193.320312 342.5625 193.417969 342.964844 C 193.519531 343.414062 193.96875 343.613281 194.371094 343.511719 " fill-opacity="1" fill-rule="evenodd"/><path fill="#f7907f" d="M 192.519531 349.113281 C 194.070312 348.710938 195.667969 348.363281 197.269531 348.0625 C 198.867188 347.761719 200.519531 347.5625 202.117188 347.464844 C 205.269531 347.214844 208.46875 347.363281 211.71875 348.164062 C 212.117188 348.261719 212.566406 348.0625 212.667969 347.664062 C 212.765625 347.214844 212.515625 346.8125 212.117188 346.714844 C 208.71875 345.714844 205.316406 345.414062 202.019531 345.664062 C 200.320312 345.761719 198.617188 346.011719 196.96875 346.363281 C 195.320312 346.714844 193.71875 347.164062 192.070312 347.664062 C 191.667969 347.761719 191.417969 348.164062 191.519531 348.5625 C 191.667969 349.011719 192.121094 349.261719 192.519531 349.113281 " fill-opacity="1" fill-rule="evenodd"/><path fill="#f7907f" d="M 192.371094 354.210938 C 194.019531 353.960938 195.617188 353.761719 197.269531 353.664062 C 198.867188 353.511719 200.46875 353.460938 202.117188 353.5625 C 205.269531 353.613281 208.417969 354.0625 211.617188 355.210938 C 212.015625 355.363281 212.417969 355.160156 212.566406 354.761719 C 212.71875 354.414062 212.515625 353.960938 212.167969 353.8125 C 208.816406 352.511719 205.519531 351.8125 202.167969 351.710938 C 200.46875 351.664062 198.769531 351.761719 197.117188 351.914062 C 195.417969 352.113281 193.769531 352.363281 192.121094 352.710938 C 191.667969 352.761719 191.417969 353.164062 191.46875 353.5625 C 191.570312 354.011719 191.96875 354.3125 192.371094 354.210938 " fill-opacity="1" fill-rule="evenodd"/><path fill="#582d2a" d="M 235.414062 372.609375 L 233.316406 329.363281 C 237.664062 328.863281 254.210938 327.066406 272.5625 325.015625 C 300.707031 321.867188 333.15625 318.066406 333.15625 318.066406 C 333.703125 318.015625 334.15625 317.515625 334.054688 316.917969 C 334.003906 316.367188 333.503906 315.964844 332.953125 316.015625 C 332.953125 316.015625 300.40625 319.464844 272.3125 322.566406 C 250.8125 324.914062 231.914062 327.066406 231.914062 327.066406 C 231.265625 327.164062 230.816406 327.714844 230.816406 328.316406 L 233.316406 372.761719 C 233.363281 373.359375 233.863281 373.761719 234.414062 373.761719 C 235.015625 373.710938 235.464844 373.210938 235.414062 372.609375 " fill-opacity="1" fill-rule="evenodd"/><path fill="#582d2a" d="M 224.515625 21.148438 C 207.117188 11.296875 179.171875 33.097656 174.269531 54.496094 C 168.371094 80.242188 178.519531 76.992188 168.023438 92.640625 C 160.921875 103.1875 150.425781 111.089844 161.671875 130.035156 C 167.921875 140.535156 153.574219 153.984375 160.671875 170.433594 L 184.621094 169.230469 C 183.070312 163.734375 183.871094 158.183594 188.570312 152.632812 C 187.769531 159.183594 190.46875 164.484375 196.617188 168.582031 L 308.957031 163.28125 C 312.855469 159.382812 314.507812 155.183594 312.804688 150.632812 C 317.304688 154.632812 318.605469 158.683594 317.707031 162.734375 L 333.503906 161.632812 C 344.402344 142.585938 316.304688 127.136719 321.003906 117.4375 C 325.304688 108.589844 331.304688 86.140625 315.757812 73.390625 C 303.707031 63.542969 313.855469 40.894531 287.660156 24.199219 C 250.464844 0.5 224.515625 21.148438 224.515625 21.148438 " fill-opacity="1" fill-rule="evenodd"/><path fill="#fcbfa3" d="M 269.511719 128.886719 L 228.964844 131.9375 C 228.964844 131.9375 226.414062 159.882812 222.515625 169.632812 C 219.015625 178.53125 213.96875 183.628906 213.96875 183.628906 C 216.765625 206.378906 270.261719 203.429688 279.359375 182.332031 C 279.359375 182.332031 273.511719 176.332031 270.5625 168.382812 C 266.8125 158.484375 269.511719 128.886719 269.511719 128.886719 " fill-opacity="1" fill-rule="evenodd"/><path fill="#f7907f" d="M 223.417969 166.730469 C 249.5625 165.582031 262.011719 157.28125 266.910156 143.335938 L 225.765625 141.933594 L 223.417969 166.730469 " fill-opacity="1" fill-rule="evenodd"/><path fill="#fcbfa3" d="M 222.265625 37.945312 C 188.417969 41.394531 184.371094 64.191406 186.46875 96.691406 C 188.917969 133.585938 201.519531 158.132812 235.113281 157.683594 C 261.660156 157.28125 283.660156 134.835938 283.160156 105.789062 C 282.558594 71.492188 272.761719 32.746094 222.265625 37.945312 " fill-opacity="1" fill-rule="evenodd"/><path fill="#fcbfa3" d="M 282.160156 84.691406 C 290.058594 84.492188 296.660156 90.589844 296.859375 98.238281 C 297.058594 105.9375 290.757812 112.339844 282.910156 112.539062 C 274.960938 112.738281 268.410156 106.636719 268.210938 98.988281 C 268.011719 91.289062 274.261719 84.890625 282.160156 84.691406 " fill-opacity="1" fill-rule="evenodd"/><path fill="#582d2a" d="M 183.171875 75.640625 L 197.667969 74.292969 C 196.269531 71.640625 197.769531 67.792969 200.269531 64.742188 C 200.417969 67.894531 201.71875 70.640625 203.816406 73.09375 L 209.367188 71.941406 C 208.367188 67.542969 208.816406 62.742188 210.46875 58.542969 C 210.617188 63.542969 211.917969 67.941406 214.316406 71.84375 C 226.765625 69.84375 239.613281 69.34375 253.164062 71.390625 C 255.113281 68.042969 255.261719 64.742188 254.414062 61.492188 C 256.863281 64.691406 257.914062 67.992188 257.914062 71.292969 L 267.613281 73.042969 C 269.960938 71.441406 271.011719 69.59375 270.261719 67.542969 C 272.3125 69.292969 273.160156 72.09375 272.910156 73.890625 L 277.410156 75.191406 C 276.359375 82.589844 280.109375 87.339844 287.410156 90.039062 L 292.859375 75.890625 L 270.960938 24.847656 L 224.117188 28.445312 L 183.871094 44.394531 L 183.171875 75.640625 " fill-opacity="1" fill-rule="evenodd"/><path fill="#582d2a" d="M 206.566406 92.488281 C 203.867188 92.738281 201.917969 95.238281 202.167969 98.089844 C 202.417969 100.9375 204.816406 102.988281 207.519531 102.738281 C 210.21875 102.488281 212.21875 99.988281 211.96875 97.191406 C 211.667969 94.339844 209.269531 92.238281 206.566406 92.488281 " fill-opacity="1" fill-rule="evenodd"/><path fill="#582d2a" d="M 244.3125 88.992188 C 247.011719 88.742188 249.414062 90.839844 249.714844 93.640625 C 249.964844 96.488281 248.011719 98.988281 245.265625 99.238281 C 242.5625 99.488281 240.164062 97.390625 239.914062 94.539062 C 239.664062 91.738281 241.664062 89.242188 244.3125 88.992188 " fill-opacity="1" fill-rule="evenodd"/><path fill="#f7907f" d="M 201.867188 105.640625 C 196.320312 106.140625 192.167969 109.589844 192.46875 113.339844 C 192.820312 117.085938 197.617188 119.6875 203.117188 119.136719 C 208.667969 118.636719 212.867188 115.1875 212.515625 111.488281 C 212.167969 107.738281 207.367188 105.140625 201.867188 105.640625 " fill-opacity="1" fill-rule="evenodd"/><path fill="#f7907f" d="M 256.8125 100.539062 C 251.3125 101.039062 247.0625 104.488281 247.414062 108.1875 C 247.761719 111.9375 252.5625 114.539062 258.0625 114.039062 C 263.613281 113.488281 267.8125 110.039062 267.460938 106.339844 C 267.113281 102.589844 262.3125 99.988281 256.8125 100.539062 " fill-opacity="1" fill-rule="evenodd"/><path fill="#582d2a" d="M 255.011719 80.589844 C 253.8125 79.742188 252.511719 79.140625 251.113281 78.691406 C 249.761719 78.242188 248.3125 78.042969 246.761719 77.992188 C 244.0625 77.941406 241.0625 78.339844 237.664062 79.492188 C 236.914062 79.792969 236.066406 79.390625 235.765625 78.589844 C 235.464844 77.839844 235.863281 76.992188 236.664062 76.691406 C 240.414062 75.140625 243.8125 74.390625 246.8125 74.441406 C 247.964844 74.441406 249.0625 74.59375 250.0625 74.84375 C 252.664062 75.441406 254.914062 76.59375 256.914062 78.242188 C 257.5625 78.742188 257.664062 79.691406 257.164062 80.339844 C 256.664062 81.042969 255.710938 81.140625 255.011719 80.589844 " fill-opacity="1" fill-rule="evenodd"/><path fill="#582d2a" d="M 197.019531 82.441406 C 198.21875 81.542969 199.519531 80.890625 200.917969 80.390625 C 202.269531 79.941406 203.71875 79.742188 205.269531 79.691406 C 207.917969 79.542969 210.96875 79.890625 214.367188 80.992188 C 215.117188 81.242188 216.015625 80.839844 216.265625 80.089844 C 216.515625 79.292969 216.117188 78.441406 215.367188 78.191406 C 211.566406 76.742188 208.167969 76.042969 205.117188 76.09375 C 203.96875 76.140625 202.917969 76.292969 201.867188 76.542969 C 199.320312 77.191406 197.070312 78.390625 195.121094 80.089844 C 194.46875 80.589844 194.371094 81.542969 194.917969 82.191406 C 195.417969 82.839844 196.367188 82.941406 197.019531 82.441406 " fill-opacity="1" fill-rule="evenodd"/><path fill="#f7907f" d="M 244.464844 121.285156 L 217.917969 126.636719 C 217.917969 126.636719 222.714844 138.136719 232.113281 136.183594 C 244.464844 133.585938 244.464844 121.285156 244.464844 121.285156 " fill-opacity="1" fill-rule="evenodd"/><path fill="#f7907f" d="M 224.417969 86.039062 C 225.117188 95.640625 223.417969 103.039062 222.816406 107.988281 C 222.464844 110.636719 222.464844 112.6875 223.066406 114.039062 C 223.917969 115.988281 225.964844 117.039062 230.316406 116.539062 C 230.914062 116.4375 231.316406 115.9375 231.265625 115.386719 C 231.164062 114.789062 230.664062 114.386719 230.117188 114.4375 C 228.464844 114.636719 227.265625 114.636719 226.367188 114.386719 C 225.664062 114.136719 225.214844 113.789062 224.964844 113.238281 C 224.464844 112.089844 224.566406 110.4375 224.867188 108.238281 C 225.515625 103.1875 227.214844 95.691406 226.464844 85.890625 C 226.414062 85.289062 225.914062 84.890625 225.367188 84.941406 C 224.816406 84.992188 224.367188 85.492188 224.417969 86.039062 " fill-opacity="1" fill-rule="evenodd"/></svg>